<svg version="1.1" id="Layer_1" xmlns="http://www.w3.org/2000/svg" xmlns:xlink="http://www.w3.org/1999/xlink" x="0px" y="0px"
	 width="100%" viewBox="0 0 1024 1024" enable-background="new 0 0 1024 1024" xml:space="preserve">
<path fill="#000000" opacity="1.000000" stroke="none" 
	d="
M336.343445,562.568359 
	C329.525024,550.735962 325.445862,538.334839 323.373291,524.151428 
	C322.738556,535.858459 323.477478,546.481018 322.488556,557.118408 
	C320.219543,581.524841 305.422943,600.680603 282.070496,608.516602 
	C256.194763,617.199402 227.983047,610.173889 211.226196,590.831421 
	C201.013870,579.043274 197.011459,564.987061 196.910431,549.741577 
	C196.724930,521.747742 196.862671,493.751831 196.768433,465.757111 
	C196.741379,457.721069 192.083130,451.216461 185.405182,449.309570 
	C175.466873,446.471649 166.392120,453.338196 165.423416,464.507233 
	C165.239319,466.629761 165.397034,468.781921 165.397034,471.229523 
	C160.104553,471.229523 155.334656,471.140167 150.569412,471.250519 
	C143.490875,471.414429 139.301880,475.604309 139.199112,482.434845 
	C139.084061,490.081299 143.066101,494.505859 150.488525,494.736115 
	C155.133499,494.880188 159.786560,494.762909 165.148636,494.762909 
	C165.322754,501.934723 165.770798,509.164307 164.760284,516.415649 
	C164.389847,519.073975 162.457077,519.331604 160.326279,519.327271 
	C154.993958,519.316467 149.661316,519.291931 144.329437,519.341492 
	C142.562149,519.357849 140.141266,518.851929 139.698975,521.189209 
	C139.122726,524.234375 138.302353,527.772949 140.140854,530.381714 
	C141.360992,532.113037 144.098328,531.458435 144.694260,528.947998 
	C145.436844,525.819763 147.517685,525.672180 149.973419,525.726074 
	C151.638916,525.762634 153.305984,525.726074 154.972351,525.723877 
	C165.212891,525.710571 165.267715,525.710571 165.290375,536.243225 
	C165.301468,541.401367 165.059067,546.559998 164.943314,551.718628 
	C164.872360,554.880493 163.156311,556.093933 160.128586,556.049133 
	C154.630798,555.967773 149.131226,555.975281 143.632629,555.999512 
	C141.791016,556.007629 139.558731,555.969543 139.517441,558.503357 
	C139.470306,561.394958 138.101105,564.734863 140.458572,567.070679 
	C141.771500,568.371582 144.281967,568.079956 144.662323,565.583252 
	C145.195633,562.082458 147.517883,561.931702 150.135452,561.989380 
	C166.182068,562.342896 165.053680,559.014099 165.323547,576.759155 
	C165.376328,580.230347 165.331161,583.702942 165.331161,587.183533 
	C160.697708,587.183533 156.412506,587.510071 152.193985,587.118469 
	C142.086349,586.180115 136.539200,595.068604 140.278748,604.603210 
	C140.639099,605.521973 141.027786,606.429626 141.399506,607.333191 
	C140.076340,609.306396 138.093857,608.847473 136.372818,608.840881 
	C132.878326,608.827454 129.327682,608.126160 125.901718,608.542969 
	C116.762154,609.654846 118.003990,606.815918 118.001015,600.733154 
	C117.980072,557.907410 117.902779,515.081482 118.009018,472.256012 
	C118.037209,460.892334 119.034431,449.617706 124.655998,439.319336 
	C136.026154,418.489899 153.894348,408.052460 177.262848,406.719238 
	C194.370697,405.743134 209.886475,410.128632 223.249741,421.277618 
	C237.038696,432.781708 243.949661,447.681580 244.165833,465.391754 
	C244.519669,494.382507 244.254745,523.380371 244.346725,552.375000 
	C244.380295,562.958252 250.766693,569.936707 260.127625,569.797363 
	C266.288513,569.705750 271.160492,566.995056 273.881165,561.432434 
	C275.294434,558.542969 277.034271,557.593201 280.099823,557.831055 
	C283.411896,558.087891 286.766388,558.007141 290.091309,557.845703 
	C296.701508,557.524780 300.631409,553.261414 300.767883,546.476379 
	C300.902618,539.775940 297.090790,535.065247 290.669556,534.453735 
	C287.199738,534.123230 283.674133,534.240540 280.179718,534.349060 
	C277.344147,534.437073 275.742645,533.534485 275.797089,530.428162 
	C275.872986,526.097351 275.819946,521.764038 275.799957,517.431885 
	C275.788483,514.942932 276.933411,513.821899 279.479462,513.882080 
	C283.142303,513.968689 286.819946,514.039673 290.472534,513.814026 
	C296.733887,513.427185 300.602478,509.093170 300.791351,502.574280 
	C300.985229,495.882629 297.111816,490.987610 290.838989,490.426422 
	C287.365814,490.115723 283.839966,490.193146 280.348694,490.344574 
	C277.220215,490.480286 275.698212,489.391327 275.772980,486.089325 
	C275.893646,480.759674 275.871460,475.424652 275.797485,470.093475 
	C275.754456,466.995514 276.940857,465.472717 280.222595,465.608185 
	C283.548218,465.745453 286.891357,465.684967 290.217224,465.518707 
	C292.990173,465.380096 295.276031,465.548920 295.302399,469.180573 
	C295.312592,470.585632 296.269623,471.240570 297.653259,471.148682 
	C299.091309,471.053131 300.442505,470.553253 300.490173,468.920135 
	C300.611511,464.760193 300.593781,460.594269 300.536804,456.432037 
	C300.515350,454.866089 299.488983,454.089478 297.962769,453.901428 
	C296.343048,453.701782 295.396301,454.388275 295.153870,455.983215 
	C294.720581,458.833466 292.673035,459.186951 290.346344,459.170197 
	C287.013794,459.146240 283.679932,459.083801 280.348816,459.149872 
	C277.279694,459.210663 275.708618,458.002899 275.767395,454.741119 
	C275.866425,449.244019 275.865753,443.742035 275.751251,438.245361 
	C275.686188,435.122009 276.996277,434.176086 280.020569,434.507141 
	C282.822021,434.813812 285.682465,434.716248 288.510559,434.616302 
	C293.728485,434.431976 298.013092,432.514893 299.902771,427.279541 
	C301.738312,422.194183 301.180634,417.441254 297.045807,413.506165 
	C296.341827,412.836243 295.408478,412.303955 295.401917,410.670349 
	C299.461212,409.243500 303.792450,409.995361 308.001648,409.961365 
	C323.122620,409.839203 323.119141,409.905243 323.116760,424.877899 
	C323.113190,447.372009 323.115845,469.866150 323.343109,492.427490 
	C326.085938,477.219330 331.181793,462.925323 339.866028,450.113617 
	C355.339996,427.285065 376.908203,413.537292 403.904236,408.644531 
	C432.089264,403.536224 459.401978,405.969360 484.493683,420.985809 
	C513.059082,438.081177 528.415466,463.845428 532.325562,496.598969 
	C536.087830,528.114075 527.412231,555.927368 506.482849,579.774841 
	C492.223175,596.022827 474.009155,605.822876 452.994202,609.777466 
	C413.630554,617.184998 378.141632,609.957092 349.293640,580.125061 
	C344.289917,574.950623 340.198730,569.065674 336.343445,562.568359 
M382.952301,548.587158 
	C384.079559,550.797852 386.802887,552.089966 387.007141,554.723572 
	C387.221802,557.490967 377.646545,563.696289 374.762360,562.765930 
	C373.674133,562.414856 372.832642,562.331787 372.103119,563.230530 
	C371.461639,564.020752 371.725769,564.916748 372.350311,565.474487 
	C375.010254,567.849854 376.618256,571.317200 380.222656,573.354736 
	C380.605438,572.764160 381.169952,572.290649 381.102264,571.938782 
	C379.842468,565.389404 385.642151,563.493713 388.971436,560.014709 
	C390.030426,558.908142 391.533112,558.297485 393.065308,559.262207 
	C397.376862,561.977051 401.652832,564.748474 406.159241,567.636292 
	C403.655090,571.373535 402.304749,575.130859 401.463837,579.021179 
	C400.327148,584.280151 402.689484,588.376892 407.268097,589.631653 
	C412.552277,591.079773 416.369110,589.189331 418.395752,583.932556 
	C419.990845,579.794983 421.207764,575.539856 420.686188,571.228271 
	C426.247040,571.228271 430.988068,571.228271 435.749817,571.228271 
	C436.046844,573.969116 436.107422,576.315247 436.599548,578.567017 
	C437.093567,580.827576 437.811371,583.091370 438.796173,585.181763 
	C440.872101,589.588135 444.966705,591.108276 449.694946,589.489929 
	C454.075500,587.990662 456.365082,583.787659 455.277588,579.168274 
	C454.289612,574.971252 452.503510,571.068237 450.367950,567.035583 
	C455.008209,563.662537 459.752472,561.014160 464.711395,558.708374 
	C465.712616,558.242859 466.794769,558.002136 467.492676,558.810242 
	C470.946442,562.809448 478.492401,564.141602 475.352142,573.021118 
	C480.560333,571.070190 482.694153,567.569580 484.887115,564.258972 
	C485.533752,563.282715 484.160767,561.811340 483.542755,562.188660 
	C478.618958,565.194458 476.707550,560.554626 474.082214,558.430603 
	C468.674072,554.055115 468.813934,553.897461 472.975647,548.046753 
	C473.650024,547.098633 474.269806,546.103699 474.830322,545.083923 
	C488.716919,519.819641 488.330536,494.874420 472.898560,470.411957 
	C471.110107,467.576935 471.260773,465.861023 473.632935,463.602844 
	C476.456879,460.914581 479.768097,458.556030 481.570221,454.658813 
	C480.219391,453.204620 479.102295,451.724335 477.711060,450.576202 
	C476.050873,449.206116 474.104858,450.408020 474.744812,451.864441 
	C477.010376,457.020477 471.972870,457.907410 470.175934,460.608551 
	C468.708893,462.813812 466.882294,462.896942 464.745941,461.082611 
	C460.154236,457.183014 455.107880,453.921326 449.547180,451.571136 
	C447.023987,450.504700 446.448120,449.001953 447.248596,446.459900 
	C448.436188,442.688568 449.937286,438.973633 450.255402,434.822784 
	C447.861481,433.458954 445.556183,432.375366 442.993469,432.742096 
	C441.753296,434.597748 443.116364,435.318817 443.797913,436.425873 
	C446.128967,440.212250 443.119385,443.368713 442.187134,446.708160 
	C441.335236,449.759888 438.574371,448.496033 436.640320,448.193115 
	C431.668121,447.414398 426.680664,446.838104 421.740295,447.860931 
	C418.033325,448.628357 416.572144,447.106323 415.867767,443.768036 
	C415.051147,439.897919 414.749786,435.881622 412.977325,432.024445 
	C410.075043,432.257721 407.032043,431.776031 405.337952,435.139679 
	C406.821808,437.208679 409.817993,436.754547 410.551056,440.038788 
	C412.460785,448.594635 412.802429,448.518524 404.888641,452.106598 
	C404.585266,452.244171 404.226471,452.309784 403.979034,452.513062 
	C397.262299,458.029999 391.678680,458.535645 386.006226,450.417328 
	C382.908081,445.983307 377.637451,446.862427 373.836945,450.825531 
	C370.255371,454.560303 370.221863,458.675354 373.821655,462.843750 
	C375.235748,464.481262 376.581451,466.290894 378.316589,467.513824 
	C381.622833,469.844025 381.241364,471.906860 379.528381,475.345398 
	C367.228668,500.035187 367.819855,524.348633 382.952301,548.587158 
z"/>
<path fill="#000000" opacity="1.000000" stroke="none" 
	d="
M710.494995,566.480469 
	C711.507568,563.597168 713.283386,563.502136 715.469177,564.182739 
	C717.834595,564.919189 720.242249,565.519775 722.699646,566.198425 
	C724.287292,563.846924 725.240845,561.893433 721.962158,560.528137 
	C720.418091,559.885132 720.178101,558.671082 720.578369,557.235107 
	C721.784119,552.909729 723.010498,548.589966 724.242065,544.271851 
	C724.775330,542.402100 725.947754,541.414124 727.946777,541.916626 
	C729.740784,542.367432 730.784973,541.828247 731.289429,540.000793 
	C731.872681,537.887634 730.439148,537.502441 728.992737,536.903625 
	C722.150879,534.071289 722.256409,534.085327 724.802185,527.181335 
	C735.804810,497.343079 746.941589,467.551910 757.619202,437.597290 
	C762.296387,424.476013 769.673767,414.324005 783.142639,409.425659 
	C784.993958,408.752350 786.792664,407.788391 789.551697,408.338531 
	C789.379700,413.373230 787.942566,419.033630 792.942078,422.867035 
	C796.898621,425.900696 801.591125,424.852020 805.996216,424.919250 
	C814.717041,425.052307 816.310242,423.038177 818.346069,409.729279 
	C825.731506,412.167755 831.699768,416.173065 836.285828,422.249176 
	C839.538635,426.558838 841.373535,431.595947 843.217285,436.597870 
	C853.812805,465.342224 864.281189,494.134155 875.050293,522.813232 
	C876.811279,527.503174 876.329346,529.966248 871.172363,530.945801 
	C869.705200,531.224548 867.608765,531.453552 868.108337,533.984131 
	C868.514038,536.039185 869.642883,536.788818 871.709473,536.122559 
	C873.949707,535.400391 874.663452,536.994263 875.222595,538.643616 
	C876.345093,541.954895 877.389648,545.292664 878.519653,548.601257 
	C879.451660,551.330261 880.781921,554.065491 876.617310,555.427673 
	C875.222046,555.883972 875.255432,557.175232 875.690674,558.375244 
	C876.232788,559.869629 877.247925,560.469971 878.817139,559.882812 
	C878.972290,559.824707 879.137451,559.789490 879.300537,559.756653 
	C887.866455,558.028931 887.889771,558.020325 890.972534,566.332520 
	C893.867371,574.137634 896.717407,581.959473 899.559082,589.784119 
	C900.113525,591.310791 901.021912,592.792847 900.429321,594.806274 
	C897.092529,595.716553 893.149170,595.632385 890.699280,598.865601 
	C890.000061,599.788269 888.896606,600.799255 888.881714,601.783447 
	C888.759155,609.871338 883.163818,609.118347 877.750488,609.010803 
	C871.587219,608.888306 865.417542,608.910400 859.254211,609.040710 
	C855.761108,609.114563 853.755127,607.789368 852.688293,604.326111 
	C849.845825,595.098145 846.515259,586.016724 843.821228,576.748352 
	C842.521851,572.277832 840.272766,570.605347 835.633789,570.771484 
	C829.320923,570.997620 822.983459,570.424805 816.656128,570.412720 
	C813.730164,570.407104 812.196594,569.496399 811.350342,566.473572 
	C809.992249,561.622314 806.531067,559.064331 801.305298,559.189575 
	C798.641052,559.253479 795.972717,559.232849 793.307861,559.175049 
	C788.056274,559.061279 784.680847,561.664795 783.424255,566.585632 
	C782.638916,569.661377 781.004639,570.535645 778.091492,570.455139 
	C773.262878,570.321716 768.422791,570.568665 763.596069,570.404541 
	C760.093994,570.285461 758.204224,571.573486 757.100830,575.043274 
	C754.023743,584.718933 750.444153,594.235168 747.387756,603.916870 
	C746.168884,607.778015 744.048157,609.200134 740.126343,609.064209 
	C733.967590,608.850708 727.796631,608.996155 721.630798,608.975708 
	C719.276184,608.967896 717.567749,608.348755 716.901245,605.607544 
	C714.819397,597.045654 713.150024,595.788818 704.343628,595.350220 
	C703.203247,595.293457 701.996765,595.469788 700.395142,594.088867 
	C703.654907,585.167847 707.001038,576.010193 710.494995,566.480469 
M816.831909,491.525604 
	C813.840698,482.029388 810.849426,472.533142 807.889282,463.135590 
	C808.569214,462.527527 808.876648,462.040558 809.294312,461.912079 
	C813.259399,460.692505 812.868347,457.524933 812.474976,454.538605 
	C812.075439,451.505127 809.469238,451.833344 807.239807,451.106171 
	C802.615845,449.598083 798.261841,450.638062 793.749512,451.181183 
	C788.955444,451.758148 786.905334,455.243195 788.885010,459.553284 
	C789.863342,461.683258 792.497803,461.143402 793.835632,463.631836 
	C786.515747,485.181244 779.052429,507.152802 771.675842,528.869141 
	C773.789001,530.777649 775.638672,530.264587 777.442383,530.242065 
	C781.936035,530.185913 786.439209,530.059570 790.921875,530.288452 
	C793.366333,530.413147 797.103516,529.823303 796.748413,533.843506 
	C796.429199,537.458069 799.556030,542.569214 793.303894,544.278931 
	C791.963501,544.645447 791.291382,545.370422 791.401611,546.744385 
	C791.513977,548.144409 792.429993,548.865967 793.716248,548.890808 
	C797.540894,548.964783 801.368469,548.971375 805.193298,548.908569 
	C806.443481,548.888123 807.429993,548.272827 807.608154,546.852600 
	C807.719604,545.963745 807.532654,544.873718 806.731995,544.713501 
	C801.204712,543.607300 803.179565,539.254395 802.783569,535.915833 
	C802.285156,531.712341 804.258179,530.336121 808.289978,530.536316 
	C813.273621,530.783875 818.278442,530.633789 823.273865,530.608521 
	C829.022217,530.579407 829.260010,530.285767 827.596375,525.064575 
	C824.112427,514.130371 820.587708,503.209167 816.831909,491.525604 
z"/>
<path fill="#000000" opacity="1.000000" stroke="none" 
	d="
M598.077332,507.077148 
	C598.595703,508.902161 599.081970,510.327667 599.376099,511.791718 
	C600.759521,518.678894 599.511292,520.598145 592.714661,522.301880 
	C589.164978,523.191589 585.620605,524.105835 582.089966,525.067932 
	C575.780396,526.787292 575.768188,526.810730 577.545044,533.184631 
	C577.896606,534.445862 578.437012,535.654480 578.940247,537.023010 
	C580.879089,536.972168 583.376892,537.258484 583.019958,534.721252 
	C582.488892,530.946411 584.938538,530.624756 587.297852,529.938660 
	C589.213806,529.381531 591.190125,529.035950 593.120361,528.523804 
	C600.941589,526.448608 604.499573,528.463684 606.912537,536.470764 
	C609.409058,544.755249 611.820557,553.065308 614.330505,561.345642 
	C614.951233,563.393433 615.492798,565.813660 618.318237,565.741577 
	C621.009766,565.672791 621.773682,563.374023 622.422485,561.314636 
	C624.572205,554.491272 627.056824,547.728271 628.545959,540.756836 
	C629.650391,535.586792 632.630310,532.178284 636.184692,528.832336 
	C637.779236,527.331299 639.311401,528.251892 640.848145,528.636292 
	C647.109009,530.202332 653.353088,531.835632 659.415344,533.395752 
	C661.495239,530.966003 661.505066,528.343262 662.311646,526.027344 
	C662.758118,524.745300 662.968140,523.311218 661.361694,522.587646 
	C659.994324,521.971741 658.495789,522.167053 657.908936,523.580383 
	C656.601379,526.729492 654.358582,525.876404 652.087036,525.271484 
	C649.996826,524.714783 647.909790,524.145996 645.816772,523.599976 
	C638.178894,521.607544 635.786011,517.318420 638.073975,509.810547 
	C645.300415,486.096893 652.506226,462.376892 659.736145,438.664276 
	C660.117432,437.413818 660.646729,436.208466 661.254089,434.590607 
	C664.869202,436.551605 667.856384,439.200104 672.168701,439.011139 
	C679.154968,438.705017 683.503906,434.917847 683.665955,427.931122 
	C683.799133,422.187653 684.554321,416.321594 680.968018,410.409302 
	C694.017517,410.409302 706.288818,410.409302 719.551025,410.409302 
	C712.069397,432.332306 704.857361,453.465271 697.287781,475.645782 
	C693.363281,469.478851 689.201660,465.135895 682.319763,468.692657 
	C675.906494,472.007202 677.055237,478.299652 677.551025,483.778503 
	C678.241333,491.407959 684.095886,492.522644 691.565430,491.923309 
	C685.197327,510.651276 679.499817,528.628601 672.960388,546.294250 
	C666.455322,563.867004 663.019897,582.755859 652.362793,598.747803 
	C649.217590,597.262146 650.041748,595.148804 649.808716,593.494019 
	C648.943970,587.353455 644.649963,584.006287 637.751343,584.247620 
	C631.890259,584.452637 627.583008,588.456848 627.291260,594.159302 
	C627.146729,596.983154 627.185486,599.828430 627.345947,602.652344 
	C627.494629,605.267456 627.916077,607.867004 628.270325,610.931274 
	C618.829102,613.681763 609.819824,612.242676 600.928223,609.064148 
	C598.812988,608.307983 598.759033,606.317139 598.736511,604.447937 
	C598.690369,600.616211 598.703064,596.783447 598.626099,592.952454 
	C598.497620,586.553040 598.055481,586.130371 591.738159,586.250977 
	C590.268433,586.278992 588.801208,586.439209 587.485901,586.528259 
	C586.350830,588.273926 586.553589,590.421326 587.791626,590.741516 
	C596.379028,592.962952 590.657837,599.170715 591.611877,603.649658 
	C584.809326,599.786743 580.316101,594.119019 577.708191,586.997498 
	C574.503418,578.246155 571.510681,569.416626 568.473511,560.604492 
	C561.856384,541.405151 555.268433,522.195862 548.671326,502.989563 
	C548.184570,501.572388 547.639893,500.168457 547.260742,498.722015 
	C545.367249,491.497772 546.079590,490.203369 553.092590,487.893555 
	C557.203064,486.539734 561.318970,485.201904 565.422180,483.826355 
	C567.012512,483.293243 569.034912,482.707031 568.451538,480.584167 
	C567.685913,477.798431 568.009888,474.180115 565.013489,472.677734 
	C563.251709,471.794342 561.117615,472.986511 561.634094,475.460022 
	C562.223328,478.282532 560.569702,478.994843 558.594910,479.669586 
	C556.390930,480.422699 554.164124,481.108643 551.949524,481.831024 
	C543.722900,484.514526 542.747742,484.617096 539.768494,476.477875 
	C532.102661,455.535248 525.067261,434.361694 517.817383,413.267548 
	C517.566162,412.536469 517.715149,411.667786 517.653809,410.353333 
	C530.603699,410.353333 543.296387,410.353333 557.128479,410.353333 
	C553.561646,415.626587 554.248840,421.089447 554.273560,426.463623 
	C554.323608,437.343445 563.379395,442.382599 572.840515,436.845825 
	C573.813904,436.276154 574.811707,435.748077 576.439026,434.845154 
	C583.689941,459.056946 590.823303,482.876160 598.077332,507.077148 
z"/>
<path fill="#000000" opacity="1.000000" stroke="none" 
	d="
M571.305542,425.778412 
	C571.431213,430.372925 570.096130,433.789520 565.439636,433.706421 
	C560.895203,433.625275 560.210205,429.789185 560.036316,426.179749 
	C559.917786,423.718811 560.056091,421.225647 560.313171,418.771362 
	C560.645691,415.597900 562.216492,413.542633 565.754395,413.648315 
	C569.480591,413.759674 571.000366,415.999268 571.227600,419.380646 
	C571.360229,421.354492 571.287903,423.342072 571.305542,425.778412 
z"/>
<path fill="#000000" opacity="1.000000" stroke="none" 
	d="
M294.552032,425.260406 
	C291.258911,428.186859 281.167908,429.324127 277.961884,427.507721 
	C275.430420,426.073486 275.796936,423.677277 275.829956,421.381683 
	C275.862732,419.102600 276.937622,417.527802 279.221832,417.181763 
	C283.154633,416.585999 287.170654,416.371399 291.045288,417.238922 
	C295.157166,418.159515 295.979553,421.150452 294.552032,425.260406 
z"/>
<path fill="#000000" opacity="1.000000" stroke="none" 
	d="
M165.179703,598.167786 
	C165.109619,602.481323 162.926361,604.273376 159.202515,604.342224 
	C156.052872,604.400452 152.893250,604.445374 149.751617,604.262817 
	C146.655701,604.082825 144.898651,602.249939 144.755630,599.138733 
	C144.611954,596.013184 146.187103,594.201050 149.297043,593.635864 
	C153.275009,592.912964 157.233704,593.146606 161.179382,593.772888 
	C163.400543,594.125488 164.559769,595.689209 165.179703,598.167786 
z"/>
<path fill="#000000" opacity="1.000000" stroke="none" 
	d="
M145.326324,485.437500 
	C144.566116,479.539825 145.604874,478.276642 150.848007,477.510651 
	C154.174957,477.024567 157.443787,477.294708 160.727768,477.701813 
	C163.179916,478.005768 164.596939,479.563995 165.088135,481.837494 
	C165.584717,484.136047 164.764496,486.100616 162.783813,487.437897 
	C159.619156,489.574463 148.493347,488.496368 145.326324,485.437500 
z"/>
<path fill="#000000" opacity="1.000000" stroke="none" 
	d="
M277.061646,497.910217 
	C281.866974,495.824493 286.519501,496.640778 291.086914,496.934052 
	C293.408844,497.083160 294.881897,498.874542 295.201233,501.275360 
	C295.542480,503.840759 294.631836,506.070404 292.233368,507.005829 
	C287.779694,508.742828 282.937469,508.920441 278.621277,507.191193 
	C274.413422,505.505432 275.475128,501.633484 277.061646,497.910217 
z"/>
<path fill="#000000" opacity="1.000000" stroke="none" 
	d="
M293.907684,549.790344 
	C289.077240,553.186340 284.068085,552.245178 279.193024,551.486084 
	C275.694183,550.941284 275.757751,547.957581 275.844208,545.219177 
	C275.931091,542.467041 277.270508,540.843811 280.102783,540.754150 
	C282.921906,540.664734 285.748016,540.582886 288.564850,540.679260 
	C294.586273,540.885376 296.331451,543.676819 293.907684,549.790344 
z"/>
<path fill="#000000" opacity="1.000000" stroke="none" 
	d="
M675.672363,432.503052 
	C669.786072,434.599335 666.972717,432.838593 666.726440,427.194427 
	C666.603210,424.370422 666.595642,421.522125 666.819214,418.707367 
	C667.059143,415.685364 668.715149,413.777771 671.944397,413.679321 
	C675.086365,413.583466 677.014404,415.036194 677.417786,418.231995 
	C678.021362,423.013702 678.720276,427.814636 675.672363,432.503052 
z"/>
<path fill="#000000" opacity="1.000000" stroke="none" 
	d="
M640.302368,607.185425 
	C634.926697,609.140320 634.082764,608.748474 633.436218,603.668457 
	C633.061279,600.722046 632.901062,597.705811 633.065979,594.744568 
	C633.247375,591.488037 635.240112,589.601624 638.579407,589.497009 
	C641.809631,589.395935 643.882385,591.440552 643.933228,594.264954 
	C644.013123,598.701355 646.722534,604.093872 640.302368,607.185425 
z"/>
<path fill="#000000" opacity="1.000000" stroke="none" 
	d="
M805.916382,419.613129 
	C803.347473,419.498413 801.186462,419.406464 799.025940,419.305206 
	C796.109863,419.168488 794.260193,417.591797 793.945496,414.776886 
	C793.623901,411.900360 795.301514,409.935242 798.027832,409.325226 
	C801.985352,408.439728 806.010559,408.741028 809.868530,409.922760 
	C812.206177,410.638794 813.268250,412.679932 812.948120,415.041687 
	C812.434143,418.834320 809.571106,419.593018 805.916382,419.613129 
z"/>
<path fill="#000000" opacity="1.000000" stroke="none" 
	d="
M691.237549,483.541748 
	C690.578003,486.783234 688.921265,488.498169 685.976135,488.093109 
	C682.895874,487.669434 682.201050,485.112061 682.135559,482.535919 
	C682.077271,480.240112 682.385986,477.927612 682.634399,475.633453 
	C682.905090,473.134644 684.318787,471.717316 686.892944,471.767944 
	C689.706421,471.823242 691.094543,473.491852 691.238525,476.162323 
	C691.362915,478.468231 691.272034,480.785736 691.237549,483.541748 
z"/>
<path fill="#000000" opacity="1.000000" stroke="none" 
	d="
M712.099854,606.083557 
	C707.278748,611.290955 701.739868,608.239014 696.123230,608.520691 
	C696.264221,604.910400 696.273193,601.923157 700.067993,601.022217 
	C705.976013,599.619446 710.108887,601.253662 712.099854,606.083557 
z"/>
<path fill="#000000" opacity="1.000000" stroke="none" 
	d="
M799.769653,564.677002 
	C803.390869,564.684814 806.224182,565.131714 806.417419,569.201050 
	C802.426819,570.775208 793.033020,570.845093 787.988342,569.210266 
	C789.931946,562.774963 795.311829,565.290039 799.769653,564.677002 
z"/>
<path fill="#000000" opacity="1.000000" stroke="none" 
	d="
M899.082520,600.933716 
	C904.322266,600.619934 905.109924,603.922852 905.648682,607.757935 
	C902.261719,609.589233 898.792908,608.985840 895.374939,608.640137 
	C894.141602,608.515381 893.158875,607.793579 892.977905,606.464478 
	C892.761719,604.877380 893.354553,603.498474 894.522034,602.438599 
	C895.679871,601.387451 897.179382,601.140564 899.082520,600.933716 
z"/>
<path fill="#000000" opacity="1.000000" stroke="none" 
	d="
M407.175537,575.409058 
	C408.213318,571.952148 409.965881,569.784302 413.405457,571.003784 
	C416.912964,572.247253 416.560028,575.147522 415.584229,578.039307 
	C415.004944,579.756042 414.605011,581.544861 413.895142,583.203064 
	C412.961456,585.384216 411.278870,586.702515 408.792328,586.044373 
	C406.314148,585.388428 405.452118,583.438721 405.774078,581.066895 
	C406.015930,579.285278 406.599091,577.549927 407.175537,575.409058 
z"/>
<path fill="#000000" opacity="1.000000" stroke="none" 
	d="
M387.348267,464.334991 
	C385.397003,466.243774 383.564056,466.474731 381.854767,464.782074 
	C379.867432,462.814117 377.885651,460.799744 376.204742,458.576263 
	C374.884064,456.829315 375.082947,454.772705 376.684479,453.158875 
	C378.295685,451.535248 380.126404,451.533478 382.086060,452.711853 
	C387.007812,455.671448 389.364166,460.444763 387.348267,464.334991 
z"/>
<path fill="#000000" opacity="1.000000" stroke="none" 
	d="
M444.641357,585.657837 
	C441.775269,582.571045 441.159973,578.972534 440.634155,575.396790 
	C440.310486,573.195557 441.290863,571.483826 443.570068,570.896362 
	C445.514221,570.395203 447.231445,570.932617 448.261475,572.738770 
	C449.917023,575.641724 451.083771,578.873291 450.990204,582.130005 
	C450.887848,585.691650 448.289581,586.703369 444.641357,585.657837 
z"/>
</svg>